# File created by Blade
# Date/Time:  Wed Apr 08 17:12:22 2015
#---------------------------------------------------------
:version 1.10
:name HOM
:units
  mass 1.0
  length 1.000000
  angle deg
:documentation
     Acclaim Skeleton File
:root
   axis xyz
   order TX TY TZ RX RY RZ
   position 0.000000 0.000000 0.000000
   orientation 0 0 0
:bonedata
   begin
      id 1
      name Spine_dum
      direction 0.000000 1.000000 0.000000
      length 5.893853
      axis 0.0 0.0 0.0 xyz
   end
   begin
      id 2
      name LeftUpLeg_dum
      direction 1.000000 0.000000 0.000000
      length 3.697939
      axis 0.0 0.0 0.0 xyz
   end
   begin
      id 3
      name RightUpLeg_dum
      direction -1.000000 0.000000 0.000000
      length 3.697939
      axis 0.0 0.0 0.0 xyz
   end
   begin
      id 4
      name Spine
      direction 0.000000 1.000000 0.000000
      length 0.000000
      axis 0.0 0.0 0.0 xyz
      dof rx ry rz
   end
   begin
      id 5
      name Spine_dum1
      direction 0.000000 1.000000 0.000000
      length 16.447146
      axis 0.0 0.0 0.0 xyz
   end
   begin
      id 6
      name Spine_dum2
      direction 0.000000 1.000000 0.000000
      length 10.900383
      axis 0.0 0.0 0.0 xyz
   end
   begin
      id 7
      name Spine_dum3
      direction 0.000000 1.000000 0.000000
      length 10.900383
      axis 0.0 0.0 0.0 xyz
   end
   begin
      id 8
      name Head
      direction 0.000000 1.000000 0.000000
      length 4.527550
      axis 0.0 0.0 0.0 xyz
      dof rx ry rz
   end
   begin
      id 9
      name LeftShoulder
      direction 1.000000 0.000000 0.000000
      length 8.219464
      axis 0.0 0.0 -90.0 xyz
      dof rx ry rz
   end
   begin
      id 10
      name LeftArm
      direction 1.000000 0.000000 0.000000
      length 11.094937
      axis 0.0 0.0 -90.0 xyz
      dof rx ry rz
   end
   begin
      id 11
      name LeftForeArm
      direction 1.000000 0.000000 0.000000
      length 9.103875
      axis 0.0 0.0 -90.0 xyz
      dof ry rz rx
   end
   begin
      id 12
      name LeftHand
      direction 0.000000 0.000000 0.000000
      length 0.000000
      axis 0.0 0.0 -90.0 xyz
      dof rx ry rz
   end
   begin
      id 13
      name LeftHand_dum1
      direction 0.000000 0.000000 0.000000
      length 0.000000
      axis 0.0 0.0 -90.0 xyz
   end
   begin
      id 14
      name LeftHand_dum2
      direction 1.000000 0.000000 0.000000
      length 3.937000
      axis 0.0 0.0 -90.0 xyz
   end
   begin
      id 15
      name LeftHandThumb1
      direction 0.000000 0.000000 1.000000
      length 3.937000
      axis 0.0 0.0 -90.0 xyz
      dof rx rz ry
   end
   begin
      id 16
      name RightShoulder
      direction -1.000000 0.000000 0.000000
      length 8.219464
      axis 0.0 0.0 90.0 xyz
      dof rx ry rz
   end
   begin
      id 17
      name RightArm
      direction -1.000000 0.000000 0.000000
      length 11.094937
      axis 0.0 0.0 90.0 xyz
      dof rx ry rz
   end
   begin
      id 18
      name RightForeArm
      direction -1.000000 0.000000 0.000000
      length 9.103875
      axis 0.0 0.0 90.0 xyz
      dof ry rz rx
   end
   begin
      id 19
      name RightHand
      direction 0.000000 0.000000 0.000000
      length 0.000000
      axis 0.0 0.0 90.0 xyz
      dof rx ry rz
   end
   begin
      id 20
      name RightHand_dum1
      direction 0.000000 0.000000 0.000000
      length 0.000000
      axis 0.0 0.0 90.0 xyz
   end
   begin
      id 21
      name RightHand_dum2
      direction -1.000000 0.000000 0.000000
      length 3.937000
      axis 0.0 0.0 90.0 xyz
   end
   begin
      id 22
      name RightHandThumb1
      direction 0.000000 0.000000 1.000000
      length 3.937000
      axis 0.0 0.0 90.0 xyz
      dof rx rz ry
   end
   begin
      id 23
      name LeftUpLeg
      direction 0.000000 -1.000000 0.000000
      length 16.181467
      axis 0.0 0.0 0.0 xyz
      dof rx ry rz
   end
   begin
      id 24
      name LeftLeg
      direction 0.000000 -1.000000 0.000000
      length 16.501392
      axis 0.0 0.0 0.0 xyz
      dof rx ry rz
   end
   begin
      id 25
      name LeftFoot
      direction 0.000000 -0.258819 0.965926
      length 6.408245
      axis 15.0 0.0 0.0 xyz
      dof rx ry rz
   end
   begin
      id 26
      name LeftToeBase
      direction 0.000000 0.000000 1.000000
      length 2.952750
      axis 0.0 0.0 0.0 xyz
      dof rx ry rz
   end
   begin
      id 27
      name RightUpLeg
      direction 0.000000 -1.000000 0.000000
      length 16.181467
      axis 0.0 0.0 0.0 xyz
      dof rx ry rz
   end
   begin
      id 28
      name RightLeg
      direction 0.000000 -1.000000 0.000000
      length 16.501392
      axis 0.0 0.0 0.0 xyz
      dof rx ry rz
   end
   begin
      id 29
      name RightFoot
      direction 0.000000 -0.258819 0.965926
      length 6.408245
      axis 15.0 0.0 0.0 xyz
      dof rx ry rz
   end
   begin
      id 30
      name RightToeBase
      direction 0.000000 0.000000 1.000000
      length 2.952750
      axis 0.0 0.0 0.0 xyz
      dof rx ry rz
   end
:hierarchy
   begin
      root Spine_dum LeftUpLeg_dum RightUpLeg_dum
      Spine_dum Spine
      LeftUpLeg_dum LeftUpLeg
      RightUpLeg_dum RightUpLeg
      Spine Spine_dum1 Spine_dum2 Spine_dum3
      Spine_dum1 Head
      Spine_dum2 LeftShoulder
      Spine_dum3 RightShoulder
      LeftShoulder LeftArm
      LeftArm LeftForeArm
      LeftForeArm LeftHand
      LeftHand LeftHand_dum1 LeftHand_dum2
      LeftHand_dum1 LeftHandThumb1
      RightShoulder RightArm
      RightArm RightForeArm
      RightForeArm RightHand
      RightHand RightHand_dum1 RightHand_dum2
      RightHand_dum1 RightHandThumb1
      LeftUpLeg LeftLeg
      LeftLeg LeftFoot
      LeftFoot LeftToeBase
      RightUpLeg RightLeg
      RightLeg RightFoot
      RightFoot RightToeBase
   end

# File created by Blade
# Date/Time:  Wed Apr 08 17:12:12 2015
# Frame Rate: 120.000 fps
#------------------------------------------------------
:FULLY-SPECIFIED
:DEGREES
768
root 4.070474 36.973036 6.624195 110.027786 -68.724134 -131.991712
Spine 33.042964 4.518475 8.733972
Head -0.527192 -0.093704 12.830690
LeftShoulder -7.504072 15.703700 15.596909
LeftArm 20.055909 27.719985 -75.200567
LeftForeArm 25.545677 -0.000000 28.128195
LeftHand -12.557588 -0.000000 -10.503500
LeftHandThumb1 -26.253704 0.000000 33.147579
RightShoulder -27.423106 -47.733220 15.279093
RightArm 55.500974 -15.208746 58.571883
RightForeArm 11.811104 0.000000 15.394862
RightHand -0.379509 -0.000000 8.051079
RightHandThumb1 -24.326973 -0.000000 -32.862282
LeftUpLeg 32.920331 33.269760 28.228740
LeftLeg 7.215116 -0.000000 -0.000000
LeftFoot -16.362621 11.004539 -16.163790
LeftToeBase -1.778013 -0.000000 0.000000
RightUpLeg -71.889153 -21.676353 4.705620
RightLeg 135.914570 -0.000000 -0.000000
RightFoot 16.271619 -3.492972 12.323894
RightToeBase -10.774133 -0.000000 0.000000
769
root 4.089878 36.975191 6.617136 110.916573 -68.482826 -132.502761
Spine 32.719352 4.622904 8.707068
Head -0.599859 -0.037460 12.960999
LeftShoulder -7.520142 15.676172 15.634250
LeftArm 19.943125 27.730301 -75.195235
LeftForeArm 25.472044 -0.000000 28.078548
LeftHand -12.525632 -0.000000 -10.550489
LeftHandThumb1 -26.253704 0.000000 33.147579
RightShoulder -27.513870 -47.774342 15.434029
RightArm 55.399392 -15.083796 58.676981
RightForeArm 11.934994 0.000000 15.322668
RightHand -0.302797 -0.000000 7.913629
RightHandThumb1 -24.326973 -0.000000 -32.862282
LeftUpLeg 32.597340 33.566591 28.111581
LeftLeg 7.138739 -0.000000 -0.000000
LeftFoot -16.379865 11.233320 -15.989220
LeftToeBase -1.609579 -0.000000 0.000000
RightUpLeg -72.083307 -21.727652 4.543317
RightLeg 135.884139 -0.000000 -0.000000
RightFoot 16.345187 -3.566140 12.267799
RightToeBase -11.075358 -0.000000 0.000000
770
root 4.097309 36.985062 6.611613 111.354347 -68.240808 -132.855302
Spine 32.756595 4.616454 8.743714
Head -0.777622 0.052506 13.037312
LeftShoulder -7.526684 15.635438 15.688673
LeftArm 19.873000 27.766377 -75.181076
LeftForeArm 25.317541 -0.000000 28.045474
LeftHand -12.558997 -0.000000 -10.598705
LeftHandThumb1 -26.253704 0.000000 33.147579
RightShoulder -27.487883 -47.747003 15.431509
RightArm 55.229135 -14.966065 58.854325
RightForeArm 12.049584 0.000000 15.330723
RightHand -0.369257 -0.000000 7.817973
RightHandThumb1 -24.326973 -0.000000 -32.862282
LeftUpLeg 32.615591 33.710050 28.219597
LeftLeg 7.034418 -0.000000 -0.000000
LeftFoot -16.379954 11.429712 -15.891921
LeftToeBase -1.937272 -0.000000 0.000000
RightUpLeg -71.885397 -21.917859 4.250887
RightLeg 135.848642 -0.000000 -0.000000
RightFoot 16.313208 -3.629153 12.296483
RightToeBase -10.962119 -0.000000 0.000000
771
root 4.102899 36.996689 6.606827 111.625244 -68.032450 -133.105838
Spine 32.879420 4.566057 8.775709
Head -0.971714 0.101777 13.105949
LeftShoulder -7.505469 15.574791 15.767678
LeftArm 19.762498 27.730067 -75.237490
LeftForeArm 25.391281 -0.000000 27.980317
LeftHand -12.479530 -0.000000 -10.651152
LeftHandThumb1 -26.253704 0.000000 33.147579
RightShoulder -27.519655 -47.755664 15.463307
RightArm 55.122421 -14.834720 59.054694
RightForeArm 12.223639 0.000000 15.337195
RightHand -0.322061 -0.000000 7.666473
RightHandThumb1 -24.326973 -0.000000 -32.862282
LeftUpLeg 32.692895 33.808786 28.361925
LeftLeg 6.938827 -0.000000 -0.000000
LeftFoot -16.315036 11.547046 -15.752903
LeftToeBase -1.892899 -0.000000 0.000000
RightUpLeg -71.594911 -22.188204 3.921695
RightLeg 135.810303 -0.000000 -0.000000
RightFoot 16.286169 -3.679816 12.238747
RightToeBase -11.037750 -0.000000 0.000000
772
root 4.108943 37.007250 6.601606 112.075445 -67.776090 -133.570039
Spine 33.041732 4.594123 8.822867
Head -1.167990 0.164982 13.157010
LeftShoulder -7.510814 15.517079 15.834821
LeftArm 19.709229 27.789261 -75.204481
LeftForeArm 25.264128 -0.000000 27.870717
LeftHand -12.363426 -0.000000 -10.732777
LeftHandThumb1 -26.253704 0.000000 33.147579
RightShoulder -27.535965 -47.737654 15.455424
RightArm 55.007626 -14.739865 59.262154
RightForeArm 12.425201 -0.000000 15.351668
RightHand -0.285934 -0.000000 7.513086
RightHandThumb1 -24.326973 -0.000000 -32.862282
LeftUpLeg 32.861015 33.977052 28.573206
LeftLeg 6.837190 -0.000000 -0.000000
LeftFoot -16.243408 11.640779 -15.650970
LeftToeBase -2.152605 -0.000000 0.000000
RightUpLeg -71.289208 -22.374600 3.615310
RightLeg 135.759043 -0.000000 -0.000000
RightFoot 16.223929 -3.759755 12.290489
RightToeBase -11.016125 -0.000000 0.000000
